<?xml version="1.0" standalone="no"?><!DOCTYPE svg PUBLIC "-//W3C//DTD SVG 1.1//EN" "http://www.w3.org/Graphics/SVG/1.1/DTD/svg11.dtd"><svg t="1688692763960" class="icon" viewBox="0 0 1024 1024" version="1.1" xmlns="http://www.w3.org/2000/svg" p-id="2574" xmlns:xlink="http://www.w3.org/1999/xlink" width="200" height="200"><path d="M689.616044 172.945305v133.723894a325.48012 325.48012 0 0 1 148.375938 273.206235 325.927999 325.927999 0 1 1-532.208304-252.411849v-140.761994a443.976126 443.976126 0 1 0 650.128466 393.045877 443.912144 443.912144 0 0 0-266.2961-406.802163zM577.326362 459.843842C577.326362 488.572086 548.086257 511.861797 512 511.861797c-36.022274 0-65.262379-23.289712-65.262379-52.017955V51.953972C446.737621 23.289712 475.913743 0 512 0c36.086257 0 65.326362 23.289712 65.326362 51.953972v407.88987z" fill="#222222" p-id="2575"></path></svg>