<?xml version="1.0" standalone="no"?><!DOCTYPE svg PUBLIC "-//W3C//DTD SVG 1.1//EN" "http://www.w3.org/Graphics/SVG/1.1/DTD/svg11.dtd"><svg t="1688661429348" class="icon" viewBox="0 0 1024 1024" version="1.1" xmlns="http://www.w3.org/2000/svg" p-id="1539" xmlns:xlink="http://www.w3.org/1999/xlink" width="200" height="200"><path d="M352 64v96h320V64H768v96h96A96 96 0 0 1 960 256v608a96 96 0 0 1-96 96h-704A96 96 0 0 1 64 864V256a96 96 0 0 1 96-96H256V64h96z m-192 416v384h704v-384h-704z m320 224v96H256V704h224z m288 0v96H544V704H768zM480 544V640H256V544h224z m288 0V640H544V544H768zM160 384h704V256h-704v128z" fill="#000000" p-id="1540"></path></svg>