<?xml version="1.0" standalone="no"?><!DOCTYPE svg PUBLIC "-//W3C//DTD SVG 1.1//EN" "http://www.w3.org/Graphics/SVG/1.1/DTD/svg11.dtd"><svg t="1688661360383" class="icon" viewBox="0 0 1024 1024" version="1.1" xmlns="http://www.w3.org/2000/svg" p-id="1235" xmlns:xlink="http://www.w3.org/1999/xlink" width="200" height="200"><path d="M403.968 87.232L53.76 359.616A112 112 0 0 0 10.56 448l0.32 9.216A112 112 0 0 0 122.56 560h21.44v282.24c0 59.136 54.4 101.76 116.544 101.76H464V736a48 48 0 1 1 96 0v208h203.456l9.728-0.32c57.984-4.224 106.816-45.44 106.816-101.44l-0.064-282.24h21.504a112 112 0 0 0 68.8-200.384L620.032 87.232a176 176 0 0 0-216.064 0z m157.12 75.776l350.208 272.384a16 16 0 0 1-9.856 28.608H784l0.064 378.24-0.64 0.512a35.008 35.008 0 0 1-19.904 5.248h-107.52l0.064-112A144 144 0 0 0 512 592l-9.856 0.32A144 144 0 0 0 368 736v112H260.48c-13.568 0-20.544-5.504-20.544-5.76V464H122.432a16 16 0 0 1-9.792-28.608l350.208-272.384a80 80 0 0 1 98.176 0z" fill="#000000" p-id="1236"></path></svg>