<?xml version="1.0" standalone="no"?><!DOCTYPE svg PUBLIC "-//W3C//DTD SVG 1.1//EN" "http://www.w3.org/Graphics/SVG/1.1/DTD/svg11.dtd"><svg t="1688661450482" class="icon" viewBox="0 0 1024 1024" version="1.1" xmlns="http://www.w3.org/2000/svg" p-id="1843" xmlns:xlink="http://www.w3.org/1999/xlink" width="200" height="200"><path d="M512 64a256 256 0 1 0 0 512 256 256 0 0 0 0-512z m0 96a160 160 0 1 1 0 320 160 160 0 0 1 0-320zM704 608a192 192 0 0 1 192 192V896a48 48 0 1 1-96 0v-96A96 96 0 0 0 704 704H320a96 96 0 0 0-96 96V896A48 48 0 1 1 128 896v-96a192 192 0 0 1 192-192h384z" fill="#000000" p-id="1844"></path><path d="M491.072 736h41.856c25.984 0 49.408 15.872 59.072 40l3.52 8.768a64 64 0 0 1-6.208 59.264l-50.688 76.032a32 32 0 0 1-53.248 0l-50.688-76.032a64 64 0 0 1-6.208-59.264l3.52-8.768a63.616 63.616 0 0 1 59.072-40z" fill="#51535F" p-id="1845"></path></svg>