<?xml version="1.0" standalone="no"?><!DOCTYPE svg PUBLIC "-//W3C//DTD SVG 1.1//EN" "http://www.w3.org/Graphics/SVG/1.1/DTD/svg11.dtd"><svg t="1692311482771" class="icon" viewBox="0 0 1024 1024" version="1.1" xmlns="http://www.w3.org/2000/svg" p-id="972" xmlns:xlink="http://www.w3.org/1999/xlink" width="35" height="35"><path d="M512 0a512 512 0 1 1 0 1024A512 512 0 0 1 512 0z m0 64a448 448 0 1 0 0 896A448 448 0 0 0 512 64z m27.264 620.288c12.416 0 23.424 3.52 32.192 11.968 8.064 7.744 12.48 17.6 12.48 29.568a38.08 38.08 0 0 1-13.184 30.208 45.888 45.888 0 0 1-31.488 11.968 45.888 45.888 0 0 1-31.488-11.968 39.424 39.424 0 0 1-12.48-30.208c0-11.968 3.648-21.824 12.48-29.568a42.88 42.88 0 0 1 31.488-11.968zM550.208 256c46.912 0 84.224 11.968 112.768 37.248 27.136 23.936 41.024 56.96 41.024 99.2 0 31.616-9.536 59.072-27.84 82.304-7.296 8.384-27.072 26.688-59.328 54.144a146.496 146.496 0 0 0-34.368 38.656 95.168 95.168 0 0 0-13.952 51.328v16.192h-58.56V618.88c0-23.168 4.416-43.584 13.184-61.184 10.24-21.12 34.432-47.808 73.984-81.536 11.712-11.264 20.48-19.712 24.896-25.344 14.592-17.6 21.952-35.84 21.952-55.552 0-28.16-8.832-49.92-24.96-65.408-16.768-16.896-40.96-24.64-71.68-24.64-36.672 0-63.744 11.264-81.28 34.496-16.128 19.648-24.192 46.4-24.192 80.832H384c0-49.216 13.888-88.576 43.2-118.144C456.512 271.488 497.472 256 550.208 256z" fill="#FFF" p-id="973"></path></svg>